# xmcd CD database file
#
# Track frame offsets:
#	150
#	6095
#	57585
#	58510
#	84245
#	85230
#	107535
#	108195
#	126075
#	127815
#	184870
#	228375
#	247575
#	297435
#
# Disc length: 4226 seconds
#
# Revision: 0
# Processed by: cddbd v1.5.2PL0 Copyright (c) Steve Scherf et al.
# Submitted via: CDex 1.51
#
DISCID=ac10800e
DTITLE=Bud Shank - Bob Cooper - Vol 2 European Tour '58 CD1
DYEAR=1958
DGENRE=Jazz
TTITLE0=Intro
TTITLE1=Scrapple from the apple
TTITLE2=Intro
TTITLE3=Stella by starlight
TTITLE4=Intro
TTITLE5=The way you look tonight
TTITLE6=Intro
TTITLE7='Round midnight
TTITLE8=Intro
TTITLE9=Bag's grooves
TTITLE10=Scrapple from the apple
TTITLE11=The way you look tonight
TTITLE12=Walkin'
TTITLE13=Tickle toe
EXTD=YEAR: 1958
EXTT0=
EXTT1=
EXTT2=
EXTT3=
EXTT4=
EXTT5=
EXTT6=
EXTT7=
EXTT8=
EXTT9=
EXTT10=
EXTT11=
EXTT12=
EXTT13=
PLAYORDER=
